<?xml version="1.0" encoding="UTF-8"?>
<!DOCTYPE svg PUBLIC "-//W3C//DTD SVG 1.1//EN" "http://www.w3.org/Graphics/SVG/1.1/DTD/svg11.dtd">
<!-- Creator: CorelDRAW X8 -->
<svg xmlns="http://www.w3.org/2000/svg" xml:space="preserve" width="1984px" height="1984px" version="1.1" style="shape-rendering:geometricPrecision; text-rendering:geometricPrecision; image-rendering:optimizeQuality; fill-rule:evenodd; clip-rule:evenodd"
viewBox="0 0 1984 1984"
 xmlns:xlink="http://www.w3.org/1999/xlink">
 <defs>
  <style type="text/css">
   <![CDATA[
    .str0 {stroke:#333333;stroke-width:8.3328}
    .fil0 {fill:none;fill-rule:nonzero}
    .fil3 {fill:#2A9F89;fill-rule:nonzero}
    .fil1 {fill:#333333;fill-rule:nonzero}
    .fil2 {fill:white;fill-rule:nonzero}
   ]]>
  </style>
 </defs>
 <g id="Capa_x0020_1">
  <metadata id="CorelCorpID_0Corel-Layer"/>
  <g id="_3105623993296">
   <path class="fil0 str0" d="M1273 680c-2,2 -4,4 -7,6l110 441c24,1 48,10 66,29 21,20 30,47 28,74l249 66 136 -514c8,-28 -1,-59 -22,-80l-341 -341 -203 203c21,37 16,84 -16,116z"/>
   <path class="fil0 str0" d="M1442 1292c-6,6 -13,11 -21,15l63 253 138 -37c25,-7 44,-27 51,-52l34 -129 -251 -67c-4,6 -8,11 -14,17z"/>
   <path class="fil0 str0" d="M1330 1138l-108 -432c-22,4 -45,1 -65,-11l-316 314c10,17 15,37 13,56l434 116c5,-9 11,-18 18,-25 8,-8 16,-13 24,-18z"/>
   <path class="fil0 str0" d="M1256 530l203 -202 -81 -82c-22,-21 -53,-30 -83,-22l-136 34 65 260c11,2 22,6 32,12z"/>
   <path class="fil0 str0" d="M663 1063l-258 -69 -40 168c-3,17 2,34 14,46l97 98 200 -199c-8,-13 -13,-29 -13,-44z"/>
   <path class="fil0 str0" d="M1306 1292c-17,-18 -27,-41 -28,-65l-438 -117c-4,6 -8,11 -13,17 -32,31 -81,36 -118,14l-199 198 356 357c16,16 39,22 61,16l512 -140 -64 -252c-25,0 -50,-9 -69,-28z"/>
   <path class="fil0 str0" d="M691 991c31,-32 80,-37 117,-15l315 -314c-22,-37 -18,-86 14,-118 11,-11 25,-19 39,-24l-63 -250 -496 127c-46,11 -82,48 -93,94l-108 457 256 68c5,-9 11,-18 19,-25z"/>
   <path class="fil0 str0" d="M1405 1260c-18,18 -48,18 -66,0 -18,-18 -18,-48 0,-66 18,-18 48,-18 66,0 18,18 18,48 0,66z"/>
   <path class="fil0 str0" d="M1241 643c-18,19 -47,19 -65,0 -18,-18 -18,-47 0,-65 18,-18 47,-18 65,0 19,18 19,47 0,65z"/>
   <path class="fil0 str0" d="M790 1095c-18,18 -48,18 -66,0 -18,-18 -18,-47 0,-66 18,-18 48,-18 66,0 18,19 18,48 0,66z"/>
   <path class="fil1" d="M715 457c0,113 -92,205 -205,205 -114,0 -205,-92 -205,-205 0,-114 91,-205 205,-205 113,0 205,91 205,205z"/>
   <path class="fil2" d="M381 436l-9 0 -7 0 0 38 2 0 14 0c10,0 18,-8 18,-19 0,-10 -8,-19 -18,-19zm0 31l-9 0 0 -24 9 0c6,0 11,5 11,12 0,7 -5,12 -11,12zm30 0l0 -8 13 0 0 -7 -13 0 0 -9 14 0 0 -7 -14 0 -8 0 0 38 3 0 20 0 0 -7 -15 0zm31 8c7,0 13,-4 13,-11 0,-8 -8,-10 -13,-12 -4,-1 -6,-3 -6,-5 0,-3 2,-4 5,-4 3,0 5,2 5,5l7 0c0,-9 -6,-12 -12,-12 -7,0 -13,3 -13,11 0,8 7,10 12,12 4,1 7,2 7,5 0,2 -2,4 -5,4 -5,0 -7,-2 -7,-5l-7 0c0,8 6,12 14,12zm24 -8l0 -8 13 0 0 -7 -13 0 0 -9 14 0 0 -7 -14 0 -8 0 0 38 3 0 20 0 0 -7 -15 0zm56 -31l-9 0 -10 23 -10 -23 -1 0 -7 0 0 38 7 0 0 -25 9 19 5 0 9 -19 0 25 7 0 0 -38zm20 0l-7 0 -7 0 0 38 7 0 0 -13 7 0c7,0 13,-5 13,-12 0,-7 -6,-13 -13,-13zm0 19l-7 0 0 -12 7 0c3,0 5,3 5,6 0,3 -2,6 -5,6zm24 12l0 -8 13 0 0 -7 -13 0 0 -9 15 0 0 -7 -15 0 -7 0 0 38 2 0 20 0 0 -7 -15 0zm24 -34l6 0c0,-3 0,-3 2,-1 5,3 10,2 10,-7l-5 0c0,3 -1,3 -3,2 -5,-3 -10,-2 -10,6zm16 3l0 24 -15 -24 -6 0 0 38 8 0 0 -23 14 23 6 0 0 -38 -7 0zm31 39c11,0 20,-9 20,-20 0,-11 -9,-19 -20,-19 -11,0 -20,8 -20,19 0,11 9,20 20,20zm0 -7c-7,0 -12,-5 -12,-13 0,-7 5,-12 12,-12 7,0 12,5 12,12 0,8 -5,13 -12,13z"/>
   <path class="fil3" d="M1138 1417c0,91 -73,164 -164,164 -90,0 -164,-73 -164,-164 0,-90 74,-164 164,-164 91,0 164,74 164,164z"/>
   <path class="fil2" d="M865 1400l0 30 6 0 0 -30 -6 0zm28 0l0 18 -12 -18 -4 0 0 30 6 0 0 -19 11 19 5 0 0 -30 -6 0zm26 31c9,0 16,-7 16,-16 0,-9 -7,-16 -16,-16 -9,0 -16,7 -16,16 0,9 7,16 16,16zm0 -6c-6,0 -10,-4 -10,-10 0,-6 4,-10 10,-10 5,0 10,4 10,10 0,6 -5,10 -10,10zm26 5l7 0 10 -30 -7 0 -7 23 -7 -23 -6 0 10 30zm37 0l6 0 -10 -30 -8 0 -10 30 7 0 1 -5 12 0 2 5zm-12 -11l4 -13 4 13 -8 0zm34 12c7,0 13,-5 15,-12l-7 0c-1,4 -4,6 -8,6 -6,0 -10,-4 -10,-10 0,-6 4,-10 10,-10 4,0 7,2 8,6l7 0c-2,-7 -8,-12 -15,-12 -9,0 -16,7 -16,16 0,9 7,16 16,16zm18 -31l0 30 6 0 0 -30 -6 0zm26 31c9,0 16,-7 16,-16 0,-9 -7,-16 -16,-16 -9,0 -16,7 -16,16 0,9 7,16 16,16zm0 -6c-6,0 -10,-4 -10,-10 0,-6 4,-10 10,-10 5,0 10,4 10,10 0,6 -5,10 -10,10zm36 -25l0 18 -12 -18 -4 0 0 30 6 0 0 -19 12 19 4 0 0 -30 -6 0z"/>
   <path class="fil1" d="M1978 769c0,114 -92,206 -205,206 -113,0 -205,-92 -205,-206 0,-113 92,-205 205,-205 113,0 205,92 205,205z"/>
   <path class="fil2" d="M1625 780l0 -6 9 0 0 -5 -9 0 0 -6 10 0 0 -5 -10 0 -6 0 0 27 2 0 14 0 0 -5 -10 0zm34 5l-8 -14 8 -13 -6 0 -5 8 -5 -8 -6 0 8 13 -8 14 6 0 5 -9 5 9 6 0zm13 -27l-5 0 -5 0 0 27 5 0 0 -9 5 0c5,0 9,-4 9,-9 0,-5 -4,-9 -9,-9zm0 13l-5 0 0 -8 5 0c2,0 4,2 4,4 0,2 -2,4 -4,4zm18 9l0 -6 10 0 0 -5 -10 0 0 -6 11 0 0 -5 -11 0 -5 0 0 27 1 0 15 0 0 -5 -11 0zm31 5l6 0 -8 -10c3,-2 5,-5 5,-8 0,-5 -4,-9 -9,-9l-5 0 -6 0 0 27 6 0 0 -9 3 0 8 9zm-11 -22l5 0c2,0 3,2 3,4 0,2 -1,4 -3,4l-5 0 0 -8zm19 -5l0 27 5 0 0 -27 -5 0zm36 0l-6 0 -7 16 -7 -16 -1 0 -5 0 0 27 5 0 0 -18 6 14 4 0 6 -14 0 18 5 0 0 -27zm11 22l0 -6 9 0 0 -5 -9 0 0 -6 10 0 0 -5 -10 0 -6 0 0 27 2 0 14 0 0 -5 -10 0zm29 -22l0 17 -11 -17 -4 0 0 27 6 0 0 -17 10 17 4 0 0 -27 -5 0zm26 0l-6 0 -12 0 0 5 7 0 0 22 5 0 0 -22 6 0 0 -5zm18 27l6 0 -9 -27 -7 0 -9 27 6 0 1 -5 11 0 1 5zm-10 -10l3 -11 4 11 -7 0zm30 10c7,0 12,-4 13,-10l-5 0c-1,3 -4,5 -8,5 -5,0 -9,-3 -9,-9 0,-5 4,-8 9,-8 4,0 7,2 8,5l5 0c-1,-6 -7,-11 -13,-11 -8,0 -14,7 -14,14 0,8 6,14 14,14zm16 -27l0 27 6 0 0 -27 -6 0zm23 27c8,0 14,-6 14,-14 0,-7 -6,-14 -14,-14 -7,0 -14,7 -14,14 0,8 7,14 14,14zm0 -5c-5,0 -8,-3 -8,-9 0,-5 3,-8 8,-8 5,0 9,3 9,8 0,6 -4,9 -9,9zm33 -22l0 17 -11 -17 -4 0 0 27 5 0 0 -17 11 17 4 0 0 -27 -5 0z"/>
   <path class="fil3" d="M1494 169c0,91 -73,164 -164,164 -90,0 -164,-73 -164,-164 0,-90 74,-163 164,-163 91,0 164,73 164,163z"/>
   <path class="fil2" d="M1233 183c7,0 14,-5 15,-12l-6 0c-1,4 -5,6 -9,6 -6,0 -10,-4 -10,-10 0,-6 4,-10 10,-10 4,0 8,2 9,6l6 0c-1,-7 -8,-12 -15,-12 -9,0 -15,7 -15,16 0,9 6,16 15,16zm33 0c8,0 15,-7 15,-16 0,-9 -7,-16 -15,-16 -9,0 -16,7 -16,16 0,9 7,16 16,16zm0 -6c-6,0 -10,-4 -10,-10 0,-6 4,-10 10,-10 5,0 9,4 9,10 0,6 -4,10 -9,10zm36 -25l0 19 -12 -19 -4 0 0 30 5 0 0 -19 12 19 5 0 0 -30 -6 0zm29 6l0 -6 -12 0 -6 0 0 30 6 0 0 -11 12 0 0 -6 -12 0 0 -7 12 0zm4 -6l0 30 6 0 0 -30 -6 0zm30 30l7 0 -10 -30 -8 0 -10 30 6 0 2 -5 12 0 1 5zm-11 -11l4 -12 4 12 -8 0zm37 -19l0 19 -12 -19 -4 0 0 30 6 0 0 -19 11 19 5 0 0 -30 -6 0zm18 24l12 -19 0 -5 -19 0 0 6 12 0 -13 19 0 5 21 0 0 -6 -13 0zm35 6l7 0 -10 -30 -8 0 -10 30 6 0 2 -5 12 0 1 5zm-11 -11l4 -12 4 12 -8 0z"/>
   <path class="fil3" d="M416 1181c0,113 -92,205 -205,205 -113,0 -205,-92 -205,-205 0,-113 92,-205 205,-205 113,0 205,92 205,205z"/>
   <path class="fil2" d="M68 1197l8 0 -12 -38 -10 0 -12 38 8 0 2 -7 14 0 2 7zm-14 -14l5 -16 5 16 -10 0zm34 7l0 -31 -8 0 0 38 22 0 0 -7 -14 0zm37 -31l-9 0 -17 0 0 7 9 0 0 31 8 0 0 -31 9 0 0 -7zm11 31l0 -9 14 0 0 -7 -14 0 0 -8 15 0 0 -7 -15 0 -7 0 0 38 2 0 20 0 0 -7 -15 0zm43 7l9 0 -11 -15c4,-2 7,-6 7,-11 0,-6 -6,-12 -13,-12l-7 0 -7 0 0 38 7 0 0 -13 5 0 10 13zm-15 -31l7 0c3,0 5,2 5,5 0,4 -2,6 -5,6l-7 0 0 -11zm47 -7l0 23 -15 -23 -5 0 0 38 7 0 0 -24 15 24 6 0 0 -38 -8 0zm38 38l8 0 -13 -38 -9 0 -13 38 8 0 2 -7 15 0 2 7zm-14 -14l5 -16 5 16 -10 0zm46 -24l-9 0 -17 0 0 7 9 0 0 31 8 0 0 -31 9 0 0 -7zm4 0l0 38 8 0 0 -38 -8 0zm24 38l9 0 12 -38 -8 0 -9 29 -9 -29 -8 0 13 38zm46 0l8 0 -13 -38 -9 0 -13 38 8 0 2 -7 15 0 2 7zm-14 -14l5 -16 5 16 -10 0zm37 15c7,0 13,-4 13,-12 0,-8 -7,-10 -13,-11 -3,-2 -6,-3 -6,-6 0,-2 2,-4 5,-4 3,0 5,2 5,5l8 0c0,-8 -6,-12 -13,-12 -6,0 -12,4 -12,11 0,8 6,10 12,12 3,2 7,3 7,5 0,3 -2,4 -6,4 -4,0 -6,-1 -6,-5l-8 0c0,9 6,13 14,13z"/>
   <path class="fil1" d="M1064 1815c0,90 -73,163 -164,163 -90,0 -163,-73 -163,-163 0,-91 73,-164 163,-164 91,0 164,73 164,164z"/>
   <path class="fil2" d="M845 1753l0 19 -12 -19 -4 0 0 30 6 0 0 -18 11 18 5 0 0 -30 -6 0zm22 31c6,0 11,-3 11,-10l0 -21 -6 0 0 21c0,3 -1,4 -5,4 -3,0 -5,-1 -5,-4l0 -21 -6 0 0 21c0,7 5,10 11,10zm22 -6l0 -7 11 0 0 -6 -11 0 0 -6 12 0 0 -6 -12 0 -6 0 0 30 2 0 16 0 0 -5 -12 0zm24 5l7 0 10 -30 -7 0 -7 23 -7 -23 -6 0 10 30zm37 0l6 0 -10 -30 -7 0 -11 30 7 0 1 -5 12 0 2 5zm-12 -11l4 -12 4 12 -8 0zm30 12c6,0 10,-3 10,-9 0,-6 -5,-8 -10,-9 -3,-1 -5,-2 -5,-5 0,-1 2,-3 4,-3 3,0 5,2 5,4l5 0c0,-6 -4,-9 -10,-9 -5,0 -10,3 -10,8 0,7 6,9 10,10 3,1 5,2 5,4 0,2 -1,3 -4,3 -3,0 -5,-1 -5,-4l-6 0c0,7 5,10 11,10z"/>
   <path class="fil2" d="M789 1797l-6 0 -8 18 -8 -18 -1 0 -6 0 0 30 6 0 0 -20 7 15 4 0 7 -15 0 20 5 0 0 -30zm20 31c9,0 16,-7 16,-16 0,-9 -7,-16 -16,-16 -8,0 -15,7 -15,16 0,9 7,16 15,16zm0 -6c-5,0 -9,-4 -9,-10 0,-6 4,-10 9,-10 6,0 10,4 10,10 0,6 -4,10 -10,10zm33 -25l-7 0 -6 0 0 30 2 0 11 0c8,0 15,-6 15,-15 0,-8 -7,-15 -15,-15zm0 24l-7 0 0 -18 7 0c5,0 9,3 9,9 0,6 -4,9 -9,9zm36 6l7 0 -11 -30 -7 0 -10 30 6 0 2 -5 11 0 2 5zm-11 -11l4 -12 4 12 -8 0zm27 5l0 -24 -6 0 0 30 17 0 0 -6 -11 0zm14 -24l0 30 6 0 0 -30 -6 0zm25 0l-7 0 -6 0 0 30 2 0 11 0c8,0 14,-6 14,-15 0,-8 -6,-15 -14,-15zm0 24l-7 0 0 -18 7 0c5,0 8,3 8,9 0,6 -3,9 -8,9zm36 6l6 0 -10 -30 -8 0 -10 30 7 0 1 -5 12 0 2 5zm-12 -11l4 -12 4 12 -8 0zm34 -19l-7 0 -6 0 0 30 2 0 11 0c8,0 14,-6 14,-15 0,-8 -6,-15 -14,-15zm0 24l-7 0 0 -18 7 0c5,0 9,3 9,9 0,6 -4,9 -9,9zm25 0l0 -6 10 0 0 -6 -10 0 0 -6 11 0 0 -6 -11 0 -6 0 0 30 2 0 16 0 0 -6 -12 0zm25 7c6,0 10,-3 10,-9 0,-6 -5,-8 -10,-10 -2,-1 -4,-2 -4,-4 0,-2 1,-3 3,-3 3,0 5,1 5,4l6 0c0,-7 -5,-10 -11,-10 -5,0 -9,3 -9,9 0,7 5,8 9,10 3,1 6,2 6,4 0,2 -2,3 -5,3 -3,0 -5,-1 -5,-4l-6 0c0,7 5,10 11,10z"/>
   <path class="fil2" d="M801 1841l-7 0 -6 0 0 30 2 0 11 0c8,0 14,-7 14,-15 0,-9 -6,-15 -14,-15zm0 24l-7 0 0 -19 7 0c5,0 9,4 9,10 0,5 -4,9 -9,9zm25 0l0 -7 10 0 0 -5 -10 0 0 -7 11 0 0 -5 -11 0 -6 0 0 30 2 0 16 0 0 -6 -12 0zm41 -5l9 0c-1,4 -5,6 -9,6 -6,0 -10,-4 -10,-10 0,-6 4,-10 10,-10 4,0 7,2 8,5l6 0c-1,-6 -7,-11 -14,-11 -9,0 -16,7 -16,16 0,9 7,15 15,15 4,0 8,-1 10,-4l0 4 5 0 0 -11 0 -5 -14 0 0 5zm25 5l0 -7 11 0 0 -5 -11 0 0 -7 12 0 0 -5 -12 0 -6 0 0 30 2 0 16 0 0 -6 -12 0zm26 6c5,0 10,-3 10,-8 0,-7 -5,-8 -10,-10 -3,-1 -5,-2 -5,-4 0,-2 2,-3 4,-3 3,0 4,1 4,4l6 0c0,-7 -5,-10 -10,-10 -5,0 -10,3 -10,9 0,6 6,8 10,10 3,1 5,1 5,4 0,1 -1,3 -4,3 -3,0 -5,-2 -5,-4l-6 0c0,6 5,9 11,9zm32 -30l-8 0 -13 0 0 5 7 0 0 25 6 0 0 -25 8 0 0 -5zm3 0l0 30 6 0 0 -30 -6 0zm26 30c8,0 15,-6 15,-15 0,-9 -7,-16 -15,-16 -9,0 -16,7 -16,16 0,9 7,15 16,15zm0 -5c-6,0 -10,-4 -10,-10 0,-6 4,-10 10,-10 5,0 9,4 9,10 0,6 -4,10 -9,10zm36 -25l0 18 -12 -18 -4 0 0 30 5 0 0 -19 12 19 5 0 0 -30 -6 0z"/>
   <path class="fil3" d="M1940 1581c0,114 -92,205 -205,205 -113,0 -205,-91 -205,-205 0,-113 92,-205 205,-205 113,0 205,92 205,205z"/>
   <path class="fil2" d="M1585 1573c9,0 16,-7 16,-16 0,-9 -7,-16 -16,-16 -8,0 -15,7 -15,16 0,9 7,16 15,16zm0 -6c-5,0 -9,-4 -9,-10 0,-6 4,-10 9,-10 6,0 10,4 10,10 0,6 -4,10 -10,10zm32 -25l-6 0 -6 0 0 30 6 0 0 -10 6 0c5,0 10,-5 10,-10 0,-6 -5,-10 -10,-10zm0 14l-6 0 0 -9 6 0c2,0 4,2 4,5 0,2 -2,4 -4,4zm28 17c9,0 16,-7 16,-16 0,-9 -7,-16 -16,-16 -9,0 -16,7 -16,16 0,9 7,16 16,16zm0 -6c-5,0 -10,-4 -10,-10 0,-6 5,-10 10,-10 6,0 10,4 10,10 0,6 -4,10 -10,10zm38 5l7 0 -9 -11c3,-2 6,-5 6,-9 0,-6 -5,-10 -11,-10l-5 0 -6 0 0 30 6 0 0 -10 4 0 8 10zm-12 -25l5 0c3,0 5,2 5,5 0,2 -2,4 -5,4l-5 0 0 -9zm38 -5l-8 0 -13 0 0 5 8 0 0 25 5 0 0 -25 8 0 0 -5zm14 31c6,0 11,-4 11,-10l0 -21 -6 0 0 20c0,3 -2,5 -5,5 -4,0 -5,-2 -5,-5l0 -20 -6 0 0 21c0,6 5,10 11,10zm32 -31l0 18 -12 -18 -4 0 0 30 6 0 0 -19 12 19 4 0 0 -30 -6 0zm12 0l0 30 6 0 0 -30 -6 0zm24 0l-7 0 -6 0 0 30 2 0 11 0c9,0 15,-7 15,-15 0,-9 -6,-15 -15,-15zm0 24l-7 0 0 -19 7 0c5,0 9,4 9,10 0,5 -4,9 -9,9zm36 6l7 0 -10 -30 -8 0 -10 30 6 0 2 -5 12 0 1 5zm-11 -11l4 -13 4 13 -8 0zm34 -19l-7 0 -6 0 0 30 2 0 11 0c8,0 14,-7 14,-15 0,-9 -6,-15 -14,-15zm0 24l-7 0 0 -19 7 0c5,0 9,4 9,10 0,5 -4,9 -9,9zm24 0l0 -6 11 0 0 -6 -11 0 0 -7 12 0 0 -5 -12 0 -6 0 0 30 2 0 16 0 0 -6 -12 0zm26 7c6,0 10,-3 10,-9 0,-7 -5,-8 -10,-10 -3,-1 -5,-2 -5,-4 0,-2 2,-3 4,-3 3,0 5,1 5,4l5 0c0,-7 -4,-10 -10,-10 -5,0 -9,3 -9,9 0,6 5,8 9,10 3,1 5,2 5,4 0,1 -1,3 -4,3 -3,0 -5,-2 -5,-4l-6 0c0,6 5,10 11,10z"/>
   <path class="fil2" d="M1624 1586l-7 0 -6 0 0 30 2 0 11 0c8,0 14,-7 14,-15 0,-9 -6,-15 -14,-15zm0 24l-7 0 0 -19 7 0c5,0 9,4 9,10 0,5 -4,9 -9,9zm25 0l0 -7 10 0 0 -5 -10 0 0 -7 11 0 0 -5 -11 0 -6 0 0 30 2 0 16 0 0 -6 -12 0zm43 -24l0 18 -12 -18 -4 0 0 30 6 0 0 -19 11 19 5 0 0 -30 -6 0zm18 24l0 -7 10 0 0 -5 -10 0 0 -7 11 0 0 -5 -11 0 -6 0 0 30 1 0 16 0 0 -6 -11 0zm30 -5l9 0c-1,4 -5,6 -9,6 -6,0 -10,-4 -10,-10 0,-6 4,-10 10,-10 4,0 7,2 8,5l6 0c-1,-6 -7,-11 -14,-11 -9,0 -16,7 -16,16 0,8 7,15 15,15 4,0 8,-1 10,-4l0 4 5 0 0 -11 0 -5 -14 0 0 5zm34 11c8,0 15,-7 15,-15 0,-9 -7,-16 -15,-16 -9,0 -16,7 -16,16 0,8 7,15 16,15zm0 -5c-6,0 -10,-5 -10,-10 0,-6 4,-10 10,-10 5,0 9,4 9,10 0,5 -4,10 -9,10zm34 5c7,0 13,-4 15,-11l-7 0c-1,3 -4,6 -8,6 -6,0 -10,-5 -10,-10 0,-6 4,-10 10,-10 4,0 7,2 8,5l7 0c-2,-6 -8,-11 -15,-11 -9,0 -16,7 -16,16 0,8 7,15 16,15zm18 -30l0 30 6 0 0 -30 -6 0zm26 30c9,0 16,-7 16,-15 0,-9 -7,-16 -16,-16 -9,0 -16,7 -16,16 0,8 7,15 16,15zm0 -5c-5,0 -10,-5 -10,-10 0,-6 5,-10 10,-10 5,0 10,4 10,10 0,5 -5,10 -10,10z"/>
   <path class="fil1" d="M1244 958c0,71 -58,129 -129,129 -71,0 -129,-58 -129,-129 0,-71 58,-129 129,-129 71,0 129,58 129,129z"/>
   <path class="fil2" d="M1067 944l6 0c0,3 -3,4 -6,4 -4,0 -7,-3 -7,-7 0,-5 3,-7 7,-7 3,0 5,1 6,3l5 0c-1,-4 -6,-8 -11,-8 -6,0 -11,5 -11,12 0,6 4,11 11,11 3,0 5,-1 7,-3l0 2 4 0 0 -7 0 -4 -11 0 0 4zm18 3l0 -4 8 0 0 -4 -8 0 0 -5 9 0 0 -4 -9 0 -4 0 0 21 1 0 12 0 0 -4 -9 0zm18 5c5,0 8,-2 8,-6 0,-5 -4,-6 -7,-7 -2,-1 -4,-2 -4,-3 0,-2 1,-2 3,-2 2,0 3,1 3,2l4 0c0,-4 -3,-7 -7,-7 -4,0 -7,3 -7,7 0,4 4,6 7,7 2,0 4,1 4,3 0,1 -1,2 -4,2 -2,0 -3,-1 -3,-3l-4 0c0,5 3,7 7,7zm23 -22l-5 0 -10 0 0 4 6 0 0 17 4 0 0 -17 5 0 0 -4zm2 0l0 21 5 0 0 -21 -5 0zm19 22c6,0 11,-5 11,-11 0,-7 -5,-12 -11,-12 -6,0 -11,5 -11,12 0,6 5,11 11,11zm0 -4c-4,0 -7,-3 -7,-7 0,-5 3,-7 7,-7 4,0 7,2 7,7 0,4 -3,7 -7,7zm26 -18l0 13 -9 -13 -3 0 0 21 4 0 0 -13 9 13 3 0 0 -21 -4 0z"/>
   <path class="fil2" d="M1016 961l-5 0 -4 0 0 22 2 0 7 0c6,0 11,-5 11,-11 0,-6 -5,-11 -11,-11zm0 18l-5 0 0 -14 5 0c4,0 7,3 7,7 0,4 -3,7 -7,7zm18 0l0 -5 8 0 0 -4 -8 0 0 -5 8 0 0 -4 -8 0 -4 0 0 22 1 0 12 0 0 -4 -9 0zm32 4l5 0 -6 -9c2,-1 4,-3 4,-6 0,-4 -4,-7 -8,-7l-4 0 -4 0 0 22 4 0 0 -8 3 0 6 8zm-9 -18l4 0c2,0 3,1 3,3 0,2 -1,3 -3,3l-4 0 0 -6zm20 14l0 -5 8 0 0 -4 -8 0 0 -5 8 0 0 -4 -8 0 -4 0 0 22 1 0 11 0 0 -4 -8 0zm18 4c4,0 7,-2 7,-6 0,-5 -4,-6 -7,-7 -2,-1 -3,-1 -3,-3 0,-1 1,-2 3,-2 2,0 3,1 3,3l4 0c0,-5 -4,-7 -7,-7 -4,0 -7,2 -7,6 0,5 3,6 6,7 3,1 4,1 4,3 0,1 -1,2 -3,2 -2,0 -4,-1 -4,-3l-4 0c0,5 4,7 8,7zm18 0c4,0 8,-2 8,-7l0 -15 -5 0 0 15c0,2 -1,3 -3,3 -3,0 -4,-1 -4,-3l0 -15 -4 0 0 15c0,5 3,7 8,7zm16 -4l0 -18 -5 0 0 22 13 0 0 -4 -8 0zm21 -18l-5 0 -10 0 0 4 5 0 0 18 5 0 0 -18 5 0 0 -4zm14 22l5 0 -8 -22 -5 0 -7 22 4 0 2 -4 8 0 1 4zm-8 -8l3 -9 3 9 -6 0zm24 -14l-5 0 -4 0 0 22 1 0 8 0c6,0 10,-5 10,-11 0,-6 -4,-11 -10,-11zm0 18l-5 0 0 -14 5 0c4,0 6,3 6,7 0,4 -2,7 -6,7zm24 4c6,0 11,-5 11,-11 0,-6 -5,-11 -11,-11 -7,0 -12,5 -12,11 0,6 5,11 12,11zm0 -4c-4,0 -7,-3 -7,-7 0,-4 3,-7 7,-7 3,0 6,3 6,7 0,4 -3,7 -6,7zm20 4c4,0 8,-2 8,-6 0,-5 -4,-6 -8,-7 -2,-1 -3,-1 -3,-3 0,-1 1,-2 3,-2 2,0 3,1 3,3l4 0c0,-5 -4,-7 -7,-7 -4,0 -7,2 -7,6 0,5 3,6 7,7 2,1 3,1 3,3 0,1 -1,2 -3,2 -2,0 -3,-1 -3,-3l-5 0c0,5 4,7 8,7z"/>
  </g>
 </g>
</svg>
