<?xml version="1.0" encoding="UTF-8"?>
<svg id="Capa_1" data-name="Capa 1" xmlns="http://www.w3.org/2000/svg" viewBox="0 0 523.49 145.78">
  <defs>
    <style>
      .cls-1 {
        fill: #00a3a2;
      }

      .cls-1, .cls-2, .cls-3, .cls-4, .cls-5 {
        stroke-width: 0px;
      }

      .cls-2 {
        fill: #eaebef;
      }

      .cls-3 {
        fill: #fff;
      }

      .cls-4 {
        fill: #aaadb4;
      }

      .cls-5 {
        fill: #b8bcc6;
      }
    </style>
  </defs>
  <path class="cls-3" d="M207.46,138.81c-1.48,0-2.75-.26-3.79-.78s-1.88-1.19-2.52-2.02c-.64-.83-1.1-1.73-1.4-2.7-.3-.97-.44-1.9-.44-2.81v-.49c0-.98.15-1.95.45-2.93.3-.98.78-1.87,1.41-2.67.64-.8,1.47-1.45,2.49-1.93,1.02-.49,2.24-.73,3.67-.73s2.7.25,3.74.76c1.04.5,1.86,1.21,2.47,2.11.61.9.98,1.97,1.11,3.2h-2.23c-.12-.92-.41-1.68-.89-2.28-.48-.6-1.07-1.05-1.79-1.35-.72-.3-1.52-.44-2.41-.44-.96,0-1.81.17-2.53.5-.73.33-1.33.8-1.81,1.4-.48.6-.85,1.29-1.09,2.08-.24.78-.37,1.64-.37,2.55s.12,1.7.37,2.49c.25.79.62,1.48,1.11,2.09.5.61,1.11,1.09,1.86,1.43.74.35,1.61.52,2.6.52,1.39,0,2.56-.35,3.51-1.04.95-.7,1.52-1.7,1.73-3.02h2.22c-.15,1.11-.52,2.13-1.12,3.04-.6.92-1.43,1.65-2.49,2.2-1.06.55-2.35.82-3.86.82"/>
  <path class="cls-3" d="M227.13,138.81c-1.45,0-2.7-.26-3.76-.78-1.05-.52-1.92-1.2-2.6-2.05-.68-.84-1.19-1.75-1.52-2.71-.33-.97-.5-1.89-.5-2.78v-.49c0-.96.17-1.93.51-2.91.34-.98.86-1.87,1.55-2.68.7-.81,1.57-1.46,2.61-1.94,1.04-.49,2.28-.73,3.7-.73s2.66.24,3.7.73c1.04.49,1.91,1.14,2.61,1.94.7.81,1.21,1.7,1.56,2.68.34.98.51,1.95.51,2.91v.49c0,.89-.17,1.81-.5,2.78-.33.96-.84,1.87-1.52,2.71-.68.85-1.54,1.53-2.6,2.05s-2.3.78-3.76.78M227.13,136.81c.95,0,1.8-.18,2.57-.53.76-.36,1.41-.84,1.94-1.46.53-.61.94-1.31,1.22-2.09.28-.78.43-1.6.43-2.45,0-.9-.14-1.75-.43-2.53-.28-.78-.69-1.48-1.22-2.08-.53-.6-1.18-1.07-1.94-1.41-.76-.34-1.62-.51-2.57-.51s-1.81.17-2.57.51c-.76.34-1.41.81-1.95,1.41-.53.6-.94,1.29-1.22,2.08-.28.78-.42,1.63-.42,2.53s.14,1.68.42,2.45c.28.78.69,1.47,1.22,2.09.53.62,1.18,1.1,1.95,1.46.76.35,1.62.53,2.57.53"/>
  <polygon class="cls-3" points="240.86 138.41 240.86 122.19 244.42 122.19 252.66 136.46 253.37 136.46 252.93 136.86 252.93 122.19 255.02 122.19 255.02 138.41 251.42 138.41 243.17 124.14 242.46 124.14 242.91 123.74 242.91 138.41 240.86 138.41"/>
  <path class="cls-3" d="M266.78,138.81c-1.35,0-2.5-.22-3.45-.67-.95-.45-1.67-1.06-2.18-1.85-.5-.79-.76-1.67-.76-2.67h2.18c0,.49.13.98.39,1.47.26.49.7.9,1.31,1.22.62.32,1.45.49,2.5.49.98,0,1.78-.14,2.4-.43.62-.29,1.08-.67,1.38-1.13.29-.47.44-.98.44-1.53,0-.67-.29-1.22-.87-1.65-.58-.44-1.42-.71-2.53-.81l-1.8-.15c-1.44-.12-2.58-.56-3.44-1.33-.86-.77-1.29-1.79-1.29-3.04,0-.99.24-1.86.72-2.6.48-.74,1.15-1.32,2.01-1.74.86-.42,1.86-.63,3-.63s2.12.21,2.98.62c.86.42,1.53,1,2.01,1.74.48.75.72,1.64.72,2.68h-2.18c0-.52-.12-1.01-.37-1.47-.25-.46-.63-.84-1.14-1.13-.52-.3-1.19-.44-2.02-.44s-1.46.14-1.99.42c-.53.28-.92.65-1.18,1.1-.26.45-.39.94-.39,1.46,0,.59.23,1.12.69,1.58.46.46,1.14.73,2.05.8l1.8.15c1.11.09,2.07.32,2.88.7.81.38,1.43.88,1.87,1.51.44.63.65,1.38.65,2.25,0,.99-.27,1.88-.8,2.65s-1.28,1.37-2.24,1.8c-.96.43-2.08.65-3.35.65"/>
  <path class="cls-3" d="M285.02,138.81c-1.47,0-2.7-.29-3.7-.86-1-.57-1.75-1.37-2.27-2.4-.51-1.03-.77-2.23-.77-3.59v-9.78h2.18v10.04c0,.9.17,1.7.52,2.39.35.69.86,1.22,1.54,1.61.68.38,1.51.58,2.49.58s1.8-.19,2.48-.57c.67-.38,1.18-.91,1.53-1.6.35-.69.52-1.49.52-2.41v-10.04h2.18v9.78c0,1.36-.25,2.56-.76,3.59-.5,1.03-1.25,1.83-2.24,2.4-.99.57-2.23.86-3.71.86"/>
  <path class="cls-3" d="M297.91,122.19h2.18v16.22h-2.18v-16.22ZM299.64,136.45h7.42v1.96h-7.42v-1.96Z"/>
  <path class="cls-3" d="M308.53,122.19h12.04v1.96h-12.04v-1.96ZM313.46,123.7h2.18v14.71h-2.18v-14.71Z"/>
  <path class="cls-3" d="M332.06,138.81c-1.45,0-2.7-.26-3.76-.78-1.05-.52-1.92-1.2-2.6-2.05-.68-.84-1.19-1.75-1.52-2.71-.33-.97-.5-1.89-.5-2.78v-.49c0-.96.17-1.93.51-2.91.34-.98.86-1.87,1.55-2.68.7-.81,1.57-1.46,2.61-1.94,1.04-.49,2.28-.73,3.7-.73s2.66.24,3.7.73c1.04.49,1.91,1.14,2.61,1.94.7.81,1.22,1.7,1.56,2.68.34.98.51,1.95.51,2.91v.49c0,.89-.17,1.81-.5,2.78-.33.96-.84,1.87-1.52,2.71-.68.85-1.54,1.53-2.6,2.05s-2.3.78-3.76.78M332.06,136.81c.95,0,1.8-.18,2.57-.53.76-.36,1.41-.84,1.95-1.46.53-.61.94-1.31,1.22-2.09.28-.78.43-1.6.43-2.45,0-.9-.14-1.75-.43-2.53-.28-.78-.69-1.48-1.22-2.08-.53-.6-1.18-1.07-1.95-1.41-.76-.34-1.62-.51-2.57-.51s-1.81.17-2.57.51c-.76.34-1.41.81-1.95,1.41-.53.6-.94,1.29-1.22,2.08-.28.78-.42,1.63-.42,2.53s.14,1.68.42,2.45c.28.78.69,1.47,1.22,2.09.53.62,1.18,1.1,1.95,1.46.76.35,1.62.53,2.57.53"/>
  <path class="cls-3" d="M345.8,122.1h2.18v16.31h-2.18v-16.31ZM347.15,132.54v-1.93h4.36c.68,0,1.27-.14,1.75-.42.49-.28.86-.67,1.13-1.17.27-.5.4-1.06.4-1.7s-.13-1.2-.4-1.7c-.27-.5-.65-.89-1.13-1.18-.49-.29-1.08-.43-1.75-.43h-4.36v-1.91h3.96c1.19,0,2.22.18,3.11.53.89.36,1.57.91,2.06,1.65.49.74.74,1.7.74,2.87v.35c0,1.17-.25,2.13-.75,2.87-.5.74-1.18,1.29-2.07,1.64-.88.36-1.91.53-3.1.53h-3.96ZM355.82,138.41l-5.38-7.22h2.55l5.47,7.22h-2.64Z"/>
  <rect class="cls-3" x="363.18" y="122.19" width="2.18" height="16.22"/>
  <path class="cls-3" d="M370.15,138.41l5.84-16.22h3.69l6.02,16.22h-2.24l-5.44-14.8,1.07.53h-2.62l1.14-.53-5.27,14.8h-2.18ZM373.64,133.57l.73-1.96h7l.74,1.96h-8.47Z"/>
  <rect class="cls-3" x="397.36" y="122.19" width="2.18" height="16.22"/>
  <polygon class="cls-3" points="406.07 138.41 406.07 122.19 409.62 122.19 417.87 136.46 418.58 136.46 418.13 136.86 418.13 122.19 420.22 122.19 420.22 138.41 416.62 138.41 408.38 124.14 407.67 124.14 408.11 123.74 408.11 138.41 406.07 138.41"/>
  <path class="cls-3" d="M424.93,122.19h12.05v1.96h-12.05v-1.96ZM429.86,123.7h2.18v14.71h-2.18v-14.71Z"/>
  <path class="cls-3" d="M441.69,122.19h2.18v16.22h-2.18v-16.22ZM443.42,122.19h7.65v1.96h-7.65v-1.96ZM443.42,129.19h7.18v1.96h-7.18v-1.96ZM443.42,136.45h7.87v1.96h-7.87v-1.96Z"/>
  <path class="cls-3" d="M463.91,138.81c-1.26,0-2.4-.21-3.42-.62-1.02-.42-1.9-1-2.63-1.76-.73-.76-1.3-1.65-1.7-2.68-.4-1.03-.6-2.15-.6-3.37v-.49c0-1.04.18-2.04.54-3.01.36-.97.89-1.84,1.58-2.62.69-.78,1.53-1.39,2.52-1.84.99-.45,2.11-.68,3.36-.68,1.35,0,2.55.26,3.6.77,1.05.51,1.9,1.22,2.53,2.13.64.91,1.01,1.97,1.11,3.17h-2.22c-.1-.91-.4-1.66-.89-2.26-.49-.6-1.09-1.05-1.81-1.35-.72-.3-1.49-.46-2.32-.46s-1.62.15-2.33.46c-.71.3-1.32.73-1.84,1.3-.51.56-.91,1.24-1.19,2.02-.28.78-.42,1.67-.42,2.64,0,1.11.15,2.09.46,2.92.3.84.73,1.53,1.28,2.09.55.55,1.19.97,1.94,1.26.75.28,1.57.42,2.45.42,1.26,0,2.37-.26,3.32-.77.95-.51,1.68-1.17,2.17-1.99l-.8,2.64v-4.82h2.05v3.87c-.73.95-1.66,1.69-2.8,2.22-1.14.53-2.45.8-3.94.8M463.33,130.54h8.69v1.82h-8.69v-1.82Z"/>
  <path class="cls-3" d="M476.91,122.1h2.18v16.31h-2.18v-16.31ZM478.27,132.54v-1.93h4.36c.68,0,1.26-.14,1.75-.42.49-.28.86-.67,1.13-1.17.27-.5.4-1.06.4-1.7s-.13-1.2-.4-1.7c-.27-.5-.65-.89-1.13-1.18-.49-.29-1.08-.43-1.75-.43h-4.36v-1.91h3.95c1.19,0,2.22.18,3.11.53.89.36,1.58.91,2.07,1.65.49.74.73,1.7.73,2.87v.35c0,1.17-.25,2.13-.75,2.87-.5.74-1.18,1.29-2.07,1.64-.88.36-1.91.53-3.1.53h-3.95ZM486.93,138.41l-5.38-7.22h2.56l5.47,7.22h-2.64Z"/>
  <path class="cls-3" d="M492.51,138.41l5.84-16.22h3.69l6.02,16.22h-2.24l-5.44-14.8,1.07.53h-2.62l1.14-.53-5.27,14.8h-2.18ZM496,133.57l.73-1.96h7l.74,1.96h-8.47Z"/>
  <path class="cls-3" d="M512.82,122.19h2.18v16.22h-2.18v-16.22ZM514.55,136.45h7.42v1.96h-7.42v-1.96Z"/>
  <polyline class="cls-4" points="25.56 25.05 25.56 25.05 25.57 25.05 25.56 25.05"/>
  <path class="cls-1" d="M62.66,34.75c2.67,0,4.84,2.17,4.84,4.84s-2.17,4.84-4.84,4.84-4.84-2.17-4.84-4.84,2.17-4.84,4.84-4.84"/>
  <path class="cls-1" d="M120.34,68.05c2.67,0,4.84,2.17,4.84,4.84s-2.17,4.84-4.84,4.84-4.84-2.17-4.84-4.84,2.17-4.84,4.84-4.84"/>
  <path class="cls-1" d="M62.66,101.35c2.67,0,4.84,2.17,4.84,4.84s-2.17,4.84-4.84,4.84-4.84-2.17-4.84-4.84,2.17-4.84,4.84-4.84"/>
  <path class="cls-2" d="M36.23,139.21h0l.06.1c.31.53,1.9,3.04,4.76,4.69,2.86,1.65,5.83,1.77,6.44,1.78h9.31c2.48,0,4.49-2.01,4.49-4.49v-24.88c-2.65-.35-4.98-1.7-6.6-3.67l-21.42,12.37c-2.15,1.24-2.88,3.98-1.64,6.13h0s4.6,7.97,4.6,7.97Z"/>
  <path class="cls-2" d="M68.95,145.78h48.59c1.21-.11,3.46-.47,5.65-1.74,2.19-1.26,3.63-3.02,4.33-4.02l7.3-12.64,17-29.44c1.24-2.15.5-4.89-1.64-6.13l-21.73-12.55c-1.89,2.4-4.81,3.94-8.1,3.94-2.78,0-5.3-1.1-7.16-2.89l-40.51,23.39c.2.8.3,1.63.3,2.49,0,5.08-3.67,9.3-8.5,10.15v24.95c0,2.48,2.01,4.49,4.48,4.49"/>
  <path class="cls-2" d="M72.97,39.59c0,.86-.11,1.69-.3,2.49l40.51,23.39c1.86-1.79,4.38-2.89,7.16-2.89,3.29,0,6.21,1.54,8.1,3.94l21.73-12.55h0c2.14-1.24,2.88-3.98,1.64-6.13h0s-17-29.44-17-29.44l-7.3-12.64c-.7-1-2.14-2.76-4.33-4.02C121,.47,118.75.11,117.54,0h-48.59c-2.48,0-4.48,2.01-4.48,4.48v24.95c4.83.86,8.5,5.07,8.5,10.15"/>
  <path class="cls-5" d="M65.51,49.5v46.78c1.64.47,3.11,1.34,4.3,2.49l40.56-23.41c-.2-.8-.3-1.63-.3-2.49s.1-1.66.29-2.45l-40.55-23.41c-1.2,1.15-2.66,2.02-4.3,2.49"/>
  <path class="cls-2" d="M130.65,72.89c0,1.27-.23,2.49-.65,3.62l21.76,12.56c2.14,1.24,4.89.5,6.13-1.64l4.6-7.96.06-.1c.3-.53,1.68-3.17,1.68-6.47s-1.38-5.93-1.68-6.47l-4.66-8.07c-1.24-2.14-3.98-2.88-6.13-1.64l-21.76,12.56c.42,1.13.65,2.34.65,3.62"/>
  <path class="cls-2" d="M33.28,20.66l21.42,12.37c1.62-1.96,3.95-3.32,6.6-3.66V4.49c0-2.48-2.01-4.49-4.49-4.49h-9.31c-.61,0-3.58.13-6.45,1.78-2.86,1.65-4.45,4.16-4.76,4.69l-4.66,8.07c-1.24,2.15-.5,4.89,1.64,6.13"/>
  <path class="cls-2" d="M25.56,120.73h0c1.24,2.15,3.98,2.88,6.13,1.64l21.39-12.35c-.48-1.19-.74-2.48-.74-3.83,0-4.71,3.15-8.67,7.46-9.91v-46.78c-4.31-1.24-7.46-5.2-7.46-9.91,0-1.35.26-2.64.74-3.83l-21.39-12.35c-2.14-1.24-4.89-.5-6.13,1.64h0s-16.98,29.42-16.98,29.42l-6.9,11.96c-.31.55-1.68,3.17-1.68,6.47s1.37,5.92,1.68,6.47l6.9,11.96,16.98,29.42"/>
  <path class="cls-3" d="M196.3,36.17c0-3.7.71-7.17,2.12-10.41,1.41-3.24,3.34-6.08,5.77-8.51,2.43-2.43,5.27-4.35,8.51-5.77,3.24-1.41,6.71-2.12,10.41-2.12h41.02v17.89h-41.02c-1.25,0-2.41.23-3.49.69-1.08.46-2.03,1.09-2.84,1.9-.81.81-1.44,1.76-1.9,2.84-.46,1.08-.68,2.24-.68,3.49s.23,2.42.68,3.52c.46,1.1,1.09,2.06,1.9,2.87.81.81,1.75,1.44,2.84,1.9s2.24.69,3.49.69h17.89c3.7,0,7.18.7,10.44,2.09,3.26,1.39,6.11,3.3,8.54,5.73,2.43,2.43,4.34,5.28,5.73,8.54,1.39,3.26,2.09,6.75,2.09,10.44s-.7,7.17-2.09,10.41c-1.39,3.24-3.3,6.08-5.73,8.51-2.43,2.43-5.28,4.35-8.54,5.77-3.26,1.41-6.75,2.12-10.44,2.12h-39.71v-17.89h39.71c1.25,0,2.41-.23,3.49-.69,1.08-.46,2.03-1.09,2.84-1.9.81-.81,1.44-1.75,1.9-2.84.46-1.08.69-2.24.69-3.49s-.23-2.41-.69-3.49c-.46-1.08-1.09-2.03-1.9-2.84-.81-.81-1.76-1.44-2.84-1.9-1.08-.46-2.24-.69-3.49-.69h-17.89c-3.7,0-7.17-.71-10.41-2.12s-6.08-3.34-8.51-5.77c-2.43-2.43-4.35-5.28-5.77-8.54-1.41-3.26-2.12-6.74-2.12-10.44"/>
  <path class="cls-3" d="M347.49,98.77h-17.89v-17.89h-35.79v17.89h-17.83v-53.62c0-4.95.93-9.59,2.81-13.93,1.87-4.34,4.42-8.14,7.64-11.38,3.22-3.24,7-5.8,11.35-7.67,4.34-1.87,8.99-2.81,13.93-2.81s9.59.93,13.94,2.81c4.34,1.87,8.14,4.43,11.38,7.67,3.24,3.24,5.8,7.04,7.67,11.38,1.87,4.34,2.81,8.99,2.81,13.93v53.62ZM329.59,63.04v-17.89c0-2.45-.47-4.77-1.4-6.95-.94-2.18-2.21-4.08-3.83-5.71-1.62-1.62-3.52-2.9-5.7-3.83-2.18-.94-4.5-1.4-6.95-1.4s-4.77.47-6.95,1.4c-2.18.93-4.08,2.21-5.71,3.83-1.62,1.62-2.9,3.52-3.83,5.71-.94,2.18-1.4,4.5-1.4,6.95v17.89h35.79Z"/>
  <path class="cls-3" d="M448.05,54.44c0,4.24-.55,8.32-1.65,12.25-1.1,3.93-2.65,7.61-4.64,11.04-2,3.43-4.41,6.56-7.23,9.38-2.83,2.83-5.94,5.25-9.35,7.26-3.41,2.02-7.09,3.58-11.04,4.68-3.95,1.1-8.04,1.65-12.28,1.65s-8.32-.55-12.25-1.65c-3.93-1.1-7.6-2.66-11.03-4.68-3.43-2.02-6.56-4.44-9.38-7.26-2.83-2.83-5.25-5.95-7.26-9.38-2.02-3.43-3.57-7.11-4.68-11.04-1.1-3.93-1.65-8.01-1.65-12.25s.55-8.33,1.65-12.28c1.1-3.95,2.66-7.63,4.68-11.04,2.02-3.41,4.44-6.52,7.26-9.35,2.83-2.83,5.95-5.24,9.38-7.23,3.43-2,7.11-3.54,11.03-4.64,3.93-1.1,8.01-1.65,12.25-1.65s8.33.55,12.28,1.65c3.95,1.1,7.63,2.65,11.04,4.64,3.41,2,6.52,4.41,9.35,7.23,2.83,2.83,5.24,5.94,7.23,9.35,1.99,3.41,3.54,7.09,4.64,11.04,1.1,3.95,1.65,8.04,1.65,12.28M430.28,54.44c0-3.91-.75-7.6-2.24-11.07-1.5-3.47-3.52-6.48-6.08-9.04-2.56-2.56-5.57-4.58-9.04-6.08s-7.16-2.24-11.07-2.24-7.65.75-11.1,2.24c-3.45,1.5-6.46,3.52-9.04,6.08-2.58,2.56-4.61,5.57-6.11,9.04-1.5,3.47-2.24,7.16-2.24,11.07s.75,7.57,2.24,11c1.5,3.43,3.53,6.43,6.11,9.01,2.58,2.58,5.59,4.61,9.04,6.11,3.45,1.5,7.15,2.24,11.1,2.24s7.6-.75,11.07-2.24c3.47-1.5,6.48-3.53,9.04-6.11,2.56-2.58,4.58-5.58,6.08-9.01,1.5-3.43,2.24-7.1,2.24-11"/>
  <path class="cls-3" d="M451.98,36.17c0-3.7.71-7.17,2.12-10.41,1.41-3.24,3.34-6.08,5.77-8.51,2.43-2.43,5.27-4.35,8.51-5.77,3.24-1.41,6.71-2.12,10.41-2.12h41.02v17.89h-41.02c-1.25,0-2.41.23-3.49.69-1.08.46-2.03,1.09-2.84,1.9-.81.81-1.44,1.76-1.9,2.84-.46,1.08-.68,2.24-.68,3.49s.23,2.42.68,3.52c.46,1.1,1.09,2.06,1.9,2.87.81.81,1.75,1.44,2.84,1.9s2.24.69,3.49.69h17.89c3.7,0,7.18.7,10.44,2.09,3.26,1.39,6.11,3.3,8.54,5.73,2.43,2.43,4.34,5.28,5.73,8.54,1.39,3.26,2.09,6.75,2.09,10.44s-.7,7.17-2.09,10.41c-1.39,3.24-3.3,6.08-5.73,8.51-2.43,2.43-5.28,4.35-8.54,5.77-3.26,1.41-6.75,2.12-10.44,2.12h-39.71v-17.89h39.71c1.25,0,2.41-.23,3.49-.69,1.08-.46,2.03-1.09,2.84-1.9.81-.81,1.44-1.75,1.9-2.84.46-1.08.69-2.24.69-3.49s-.23-2.41-.69-3.49c-.46-1.08-1.09-2.03-1.9-2.84-.81-.81-1.76-1.44-2.84-1.9-1.08-.46-2.24-.69-3.49-.69h-17.89c-3.7,0-7.17-.71-10.41-2.12-3.24-1.41-6.08-3.34-8.51-5.77-2.43-2.43-4.35-5.28-5.77-8.54-1.41-3.26-2.12-6.74-2.12-10.44"/>
</svg>