<?xml version="1.0" encoding="UTF-8"?>
<!DOCTYPE svg PUBLIC "-//W3C//DTD SVG 1.1//EN" "http://www.w3.org/Graphics/SVG/1.1/DTD/svg11.dtd">
<!-- Creator: CorelDRAW X8 -->
<svg xmlns="http://www.w3.org/2000/svg" xml:space="preserve" width="3483px" height="769px" version="1.1" style="shape-rendering:geometricPrecision; text-rendering:geometricPrecision; image-rendering:optimizeQuality; fill-rule:evenodd; clip-rule:evenodd"
viewBox="0 0 3483 769"
 xmlns:xlink="http://www.w3.org/1999/xlink">
 <defs>
  <style type="text/css">
   <![CDATA[
    .fil1 {fill:#32B692;fill-rule:nonzero}
    .fil0 {fill:black;fill-rule:nonzero}
   ]]>
  </style>
 </defs>
 <g id="Capa_x0020_1">
  <metadata id="CorelCorpID_0Corel-Layer"/>
  <path class="fil0" d="M2136 0l0 0 180 0 76 0c7,1 19,2 30,9 12,7 19,16 23,21l39 67 89 155 0 0c7,12 3,26 -8,33l-115 66c-10,-13 -25,-21 -43,-21 -14,0 -28,6 -37,15l-214 -123c1,-4 1,-9 1,-13 0,-27 -19,-49 -44,-54l0 -131c0,-13 10,-24 23,-24z"/>
  <path class="fil1" d="M2433 384c0,14 -12,26 -26,26 -14,0 -25,-12 -25,-26 0,-14 11,-25 25,-25 14,0 26,11 26,25z"/>
  <path class="fil0" d="M2355 397l-214 124c-6,-6 -14,-11 -23,-13l0 -247c9,-2 17,-7 23,-13l214 123c-1,4 -2,9 -2,13 0,5 1,9 2,13z"/>
  <path class="fil1" d="M2129 209c0,14 -12,25 -26,25 -14,0 -25,-11 -25,-25 0,-14 11,-26 25,-26 14,0 26,12 26,26z"/>
  <path class="fil0" d="M1940 77l0 0 24 -43c2,-3 10,-16 25,-25 15,-8 31,-9 34,-9l1 0 0 0 48 0 0 0c13,0 24,11 24,24l0 131c-14,2 -26,9 -35,19l-113 -65c-11,-7 -15,-21 -8,-32z"/>
  <path class="fil0" d="M758 617c-7,22 -17,41 -28,58 -11,17 -25,31 -40,43 -16,12 -31,21 -48,29 -16,7 -33,13 -50,16 -17,4 -33,6 -48,6l-538 0 0 -140 538 0c27,0 48,-8 62,-23 15,-16 23,-37 23,-64 0,-12 -2,-24 -6,-35 -4,-11 -10,-20 -17,-28 -7,-8 -16,-14 -27,-18 -10,-4 -22,-6 -35,-6l-320 0c-23,0 -47,-4 -73,-13 -26,-8 -51,-21 -73,-38 -22,-18 -41,-42 -56,-71 -15,-29 -22,-64 -22,-106 0,-42 7,-77 22,-106 15,-28 34,-52 56,-70 22,-18 47,-31 73,-39 26,-8 50,-12 73,-12l474 0 0 139 -474 0c-27,0 -48,8 -62,24 -15,17 -23,38 -23,64 0,27 8,48 23,64 14,15 35,23 62,23l320 0 1 0c15,0 31,3 48,6 17,4 33,10 50,18 17,8 32,17 47,29 15,12 29,27 40,44 12,16 21,36 28,57 7,22 10,47 10,74 0,28 -3,53 -10,75z"/>
  <path class="fil0" d="M1653 769l-140 0 0 -189 -490 0 0 189 -139 0 0 -385c0,-56 10,-107 29,-155 19,-47 46,-87 80,-121 35,-34 75,-61 122,-80 47,-19 98,-28 153,-28l314 0c10,0 19,2 28,5 8,4 16,9 22,15 7,7 12,14 15,23 4,8 6,18 6,27l0 699zm-412 -628c-14,1 -30,5 -48,10 -18,5 -37,12 -57,23 -20,10 -38,24 -55,43 -17,18 -31,41 -41,68 -11,27 -17,60 -17,99l0 57 490 0 0 -302 -245 0c-4,0 -13,1 -27,2z"/>
  <path class="fil0" d="M1908 637l0 0 0 0 0 0 -90 -156 -36 -63c-2,-2 -9,-16 -9,-34 0,-17 7,-31 9,-34l36 -63 90 -155c0,0 0,0 0,0 0,0 0,0 0,0 6,-11 21,-15 32,-9l113 66c-3,6 -4,13 -4,20 0,25 16,45 39,52l0 247c-23,6 -39,27 -39,52 0,7 1,14 4,20l-113 65c-11,7 -26,3 -32,-8z"/>
  <path class="fil0" d="M2096 745c0,13 -11,24 -24,24l-49 0c-3,0 -19,-1 -34,-10 -15,-8 -23,-22 -25,-24l0 -1 0 0 -24 -42 0 0c-7,-11 -3,-26 8,-32l113 -66c9,11 21,18 35,20l0 131z"/>
  <path class="fil1" d="M2078 560c0,-14 11,-26 25,-26 14,0 26,12 26,26 0,14 -12,25 -26,25 -14,0 -25,-11 -25,-25z"/>
  <path class="fil0" d="M2573 516l0 0 -89 156 -39 66c-4,6 -11,15 -23,21 -11,7 -23,9 -29,10l-77 0 -180 0c-13,0 -23,-11 -23,-24l0 0 0 -132c25,-4 44,-26 44,-53 0,-5 0,-9 -1,-13l214 -124c9,10 23,16 37,16 18,0 33,-8 43,-21l115 66c11,7 15,21 8,32z"/>
  <path class="fil0" d="M2630 418l-1 1 -24 42c-6,11 -21,15 -32,9l-115 -67c2,-6 4,-12 4,-19 0,-6 -2,-13 -4,-19l115 -66c11,-7 26,-3 32,9l25 42c1,3 9,17 9,34 0,18 -8,32 -9,34z"/>
  <path class="fil0" d="M3473 617c-7,22 -17,41 -28,58 -11,17 -25,31 -40,43 -16,12 -32,21 -48,29 -16,7 -33,13 -50,16 -17,4 -33,6 -48,6l-538 0 0 -140 538 0c27,0 48,-8 62,-23 15,-16 23,-37 23,-64 0,-12 -2,-24 -6,-35 -4,-11 -10,-20 -17,-28 -7,-8 -16,-14 -27,-18 -10,-4 -22,-6 -35,-6l-321 0c-22,0 -46,-4 -72,-13 -27,-8 -51,-21 -73,-38 -22,-18 -41,-42 -56,-71 -15,-29 -22,-64 -22,-106 0,-42 7,-77 22,-106 15,-28 34,-52 56,-70 22,-18 46,-31 73,-39 26,-8 50,-12 72,-12l475 0 0 139 -475 0c-26,0 -47,8 -61,24 -15,17 -23,38 -23,64 0,27 8,48 23,64 14,15 35,23 61,23l321 0 1 0c15,0 31,3 48,6 17,4 33,10 50,18 16,8 32,17 47,29 15,12 29,27 40,44 12,16 21,36 28,57 7,22 10,47 10,74 0,28 -3,53 -10,75z"/>
 </g>
</svg>
