<?xml version="1.0" encoding="UTF-8"?>
<svg id="Capa_1" data-name="Capa 1" xmlns="http://www.w3.org/2000/svg" viewBox="0 0 504.7 140.55">
  <defs>
    <style>
      .cls-1 {
        fill: #00a3a2;
      }

      .cls-1, .cls-2, .cls-3 {
        stroke-width: 0px;
      }

      .cls-2 {
        fill: #4c5151;
      }

      .cls-3 {
        fill: #b8bcc6;
      }
    </style>
  </defs>
  <path class="cls-2" d="M200.02,133.83c-1.43,0-2.65-.25-3.66-.75-1.01-.5-1.82-1.15-2.43-1.95-.61-.8-1.06-1.67-1.35-2.6-.29-.93-.43-1.84-.43-2.71v-.47c0-.94.15-1.88.44-2.83.29-.94.75-1.8,1.36-2.57.61-.77,1.41-1.39,2.4-1.86.99-.47,2.16-.71,3.53-.71s2.6.24,3.6.73c1,.49,1.79,1.17,2.38,2.04.59.87.94,1.9,1.07,3.08h-2.15c-.11-.89-.4-1.62-.86-2.19-.46-.58-1.03-1.01-1.72-1.3-.69-.29-1.47-.43-2.33-.43-.93,0-1.74.16-2.44.48-.7.32-1.28.77-1.75,1.35-.47.58-.82,1.25-1.05,2.01-.23.76-.35,1.58-.35,2.46s.12,1.64.35,2.4c.24.76.59,1.43,1.07,2.01.48.59,1.07,1.05,1.79,1.38.71.34,1.55.5,2.51.5,1.34,0,2.47-.33,3.39-1.01.91-.67,1.47-1.64,1.67-2.91h2.14c-.14,1.07-.5,2.05-1.08,2.93-.58.89-1.38,1.59-2.4,2.12-1.02.53-2.26.79-3.72.79"/>
  <path class="cls-2" d="M218.98,133.83c-1.4,0-2.61-.25-3.62-.75-1.01-.5-1.85-1.16-2.51-1.97-.66-.81-1.15-1.69-1.47-2.61-.32-.93-.48-1.82-.48-2.68v-.47c0-.93.16-1.86.49-2.8.33-.94.83-1.8,1.5-2.58.67-.78,1.51-1.4,2.52-1.87,1.01-.47,2.19-.71,3.57-.71s2.56.24,3.57.71c1.01.47,1.84,1.09,2.52,1.87.67.78,1.17,1.64,1.5,2.58.33.94.49,1.88.49,2.8v.47c0,.86-.16,1.75-.48,2.68-.32.93-.81,1.8-1.47,2.61-.66.81-1.49,1.47-2.51,1.97-1.02.5-2.22.75-3.62.75M218.98,131.9c.91,0,1.74-.17,2.47-.51.74-.34,1.36-.81,1.87-1.41.51-.59.91-1.26,1.18-2.01.27-.75.41-1.54.41-2.37,0-.87-.14-1.69-.41-2.44-.27-.76-.66-1.43-1.18-2-.51-.58-1.14-1.03-1.87-1.36-.74-.33-1.56-.49-2.47-.49s-1.74.16-2.47.49c-.74.33-1.36.78-1.88,1.36-.51.58-.91,1.25-1.18,2-.27.76-.41,1.57-.41,2.44s.14,1.62.41,2.37c.27.75.67,1.42,1.18,2.01.51.59,1.14,1.06,1.88,1.41.73.34,1.56.51,2.47.51"/>
  <polygon class="cls-2" points="232.22 133.44 232.22 117.8 235.64 117.8 243.59 131.56 244.28 131.56 243.85 131.94 243.85 117.8 245.86 117.8 245.86 133.44 242.39 133.44 234.45 119.69 233.76 119.69 234.19 119.3 234.19 133.44 232.22 133.44"/>
  <path class="cls-2" d="M257.2,133.83c-1.3,0-2.41-.22-3.32-.64-.91-.43-1.61-1.02-2.1-1.78-.49-.76-.73-1.61-.73-2.57h2.1c0,.47.12.94.38,1.42.25.47.67.86,1.26,1.18.59.31,1.4.47,2.41.47.94,0,1.71-.14,2.31-.42.6-.28,1.04-.64,1.33-1.09.28-.45.43-.94.43-1.47,0-.64-.28-1.17-.84-1.6-.56-.42-1.37-.68-2.44-.78l-1.74-.15c-1.39-.12-2.49-.54-3.32-1.29-.83-.74-1.24-1.72-1.24-2.93,0-.96.23-1.79.7-2.51.46-.71,1.11-1.27,1.94-1.68.83-.41,1.79-.61,2.89-.61s2.04.2,2.87.6c.83.4,1.47.96,1.94,1.68.46.72.7,1.58.7,2.58h-2.1c0-.5-.12-.97-.35-1.41-.24-.44-.6-.81-1.1-1.09-.5-.29-1.15-.43-1.95-.43s-1.41.14-1.92.41c-.51.27-.88.63-1.13,1.06-.25.44-.38.91-.38,1.41,0,.57.22,1.08.67,1.52.44.44,1.1.7,1.97.77l1.73.15c1.07.09,2,.31,2.77.68.78.37,1.38.85,1.8,1.46.42.6.63,1.33.63,2.17,0,.96-.26,1.81-.77,2.55-.51.74-1.23,1.32-2.16,1.74-.93.42-2.01.62-3.23.62"/>
  <path class="cls-2" d="M274.79,133.83c-1.42,0-2.6-.28-3.57-.82-.96-.55-1.69-1.32-2.18-2.31-.49-.99-.74-2.15-.74-3.46v-9.43h2.1v9.68c0,.87.17,1.64.5,2.3.34.66.83,1.18,1.49,1.55.66.37,1.46.56,2.4.56s1.74-.18,2.39-.55c.65-.37,1.14-.88,1.48-1.54.34-.66.5-1.44.5-2.32v-9.68h2.1v9.43c0,1.31-.25,2.47-.73,3.46-.49.99-1.21,1.76-2.16,2.31-.96.55-2.15.82-3.58.82"/>
  <path class="cls-2" d="M287.22,117.8h2.1v15.64h-2.1v-15.64ZM288.89,131.56h7.16v1.89h-7.16v-1.89Z"/>
  <path class="cls-2" d="M297.46,117.8h11.61v1.89h-11.61v-1.89ZM302.21,119.26h2.1v14.18h-2.1v-14.18Z"/>
  <path class="cls-2" d="M320.14,133.83c-1.4,0-2.61-.25-3.62-.75-1.01-.5-1.85-1.16-2.51-1.97-.66-.81-1.15-1.69-1.47-2.61-.32-.93-.48-1.82-.48-2.68v-.47c0-.93.16-1.86.49-2.8.33-.94.83-1.8,1.5-2.58.67-.78,1.51-1.4,2.52-1.87,1.01-.47,2.19-.71,3.57-.71s2.56.24,3.57.71c1.01.47,1.84,1.09,2.52,1.87.67.78,1.17,1.64,1.5,2.58.33.94.49,1.88.49,2.8v.47c0,.86-.16,1.75-.48,2.68-.32.93-.81,1.8-1.47,2.61-.66.81-1.49,1.47-2.51,1.97-1.02.5-2.22.75-3.62.75M320.14,131.9c.91,0,1.74-.17,2.47-.51.74-.34,1.36-.81,1.87-1.41.51-.59.91-1.26,1.18-2.01.27-.75.41-1.54.41-2.37,0-.87-.14-1.69-.41-2.44-.27-.76-.66-1.43-1.18-2-.51-.58-1.14-1.03-1.87-1.36-.74-.33-1.56-.49-2.47-.49s-1.74.16-2.47.49c-.74.33-1.36.78-1.88,1.36-.51.58-.91,1.25-1.18,2-.27.76-.41,1.57-.41,2.44s.14,1.62.41,2.37c.27.75.67,1.42,1.18,2.01.51.59,1.14,1.06,1.88,1.41.73.34,1.56.51,2.47.51"/>
  <path class="cls-2" d="M333.39,117.72h2.1v15.73h-2.1v-15.73ZM334.69,127.79v-1.86h4.2c.65,0,1.22-.14,1.69-.41.47-.27.83-.65,1.09-1.13.26-.48.38-1.02.38-1.64s-.13-1.16-.38-1.64c-.26-.48-.62-.86-1.09-1.14-.47-.28-1.04-.42-1.69-.42h-4.2v-1.84h3.81c1.14,0,2.14.17,3,.51.86.34,1.52.87,1.99,1.59.47.71.71,1.64.71,2.76v.34c0,1.13-.24,2.05-.72,2.77-.48.71-1.14,1.24-1.99,1.58-.85.34-1.85.52-2.99.52h-3.81ZM343.05,133.44l-5.19-6.96h2.46l5.27,6.96h-2.55Z"/>
  <rect class="cls-2" x="350.14" y="117.8" width="2.1" height="15.64"/>
  <path class="cls-2" d="M356.87,133.44l5.63-15.64h3.56l5.8,15.64h-2.16l-5.25-14.27,1.03.52h-2.53l1.09-.52-5.08,14.27h-2.1ZM360.23,128.77l.71-1.89h6.75l.71,1.89h-8.16Z"/>
  <rect class="cls-2" x="383.09" y="117.8" width="2.1" height="15.64"/>
  <polygon class="cls-2" points="391.49 133.44 391.49 117.8 394.92 117.8 402.87 131.56 403.55 131.56 403.12 131.94 403.12 117.8 405.14 117.8 405.14 133.44 401.67 133.44 393.72 119.69 393.03 119.69 393.46 119.3 393.46 133.44 391.49 133.44"/>
  <path class="cls-2" d="M409.68,117.8h11.61v1.89h-11.61v-1.89ZM414.43,119.26h2.1v14.18h-2.1v-14.18Z"/>
  <path class="cls-2" d="M425.83,117.8h2.1v15.64h-2.1v-15.64ZM427.5,117.8h7.37v1.89h-7.37v-1.89ZM427.5,124.55h6.92v1.89h-6.92v-1.89ZM427.5,131.56h7.58v1.89h-7.58v-1.89Z"/>
  <path class="cls-2" d="M447.26,133.83c-1.21,0-2.31-.2-3.3-.6-.98-.4-1.83-.96-2.54-1.69-.71-.73-1.25-1.59-1.64-2.58-.38-.99-.58-2.08-.58-3.25v-.47c0-1,.17-1.97.52-2.9.35-.94.86-1.78,1.52-2.53.66-.75,1.48-1.34,2.43-1.78.96-.44,2.04-.65,3.24-.65,1.3,0,2.46.25,3.47.74,1.01.49,1.83,1.18,2.44,2.06.61.88.97,1.9,1.07,3.06h-2.15c-.1-.87-.38-1.6-.86-2.18-.47-.58-1.05-1.01-1.75-1.31-.69-.29-1.44-.44-2.24-.44s-1.56.15-2.25.44c-.69.29-1.27.71-1.77,1.25-.49.54-.87,1.19-1.15,1.95-.27.76-.41,1.61-.41,2.55,0,1.07.15,2.01.44,2.82.29.81.7,1.48,1.23,2.01.53.53,1.15.94,1.87,1.21.72.27,1.51.41,2.37.41,1.21,0,2.28-.25,3.21-.74.92-.49,1.62-1.13,2.09-1.92l-.77,2.55v-4.65h1.97v3.73c-.7.92-1.6,1.63-2.7,2.14-1.1.52-2.37.77-3.79.77M446.7,125.86h8.38v1.76h-8.38v-1.76Z"/>
  <path class="cls-2" d="M459.79,117.72h2.1v15.73h-2.1v-15.73ZM461.1,127.79v-1.86h4.2c.65,0,1.22-.14,1.69-.41.47-.27.83-.65,1.09-1.13.26-.48.38-1.02.38-1.64s-.13-1.16-.38-1.64c-.26-.48-.62-.86-1.09-1.14-.47-.28-1.04-.42-1.69-.42h-4.2v-1.84h3.81c1.14,0,2.14.17,3,.51.86.34,1.52.87,1.99,1.59.47.71.71,1.64.71,2.76v.34c0,1.13-.24,2.05-.72,2.77-.48.71-1.14,1.24-1.99,1.58-.85.34-1.84.52-2.99.52h-3.81ZM469.45,133.44l-5.18-6.96h2.46l5.27,6.96h-2.55Z"/>
  <path class="cls-2" d="M474.83,133.44l5.63-15.64h3.56l5.8,15.64h-2.16l-5.25-14.27,1.03.52h-2.53l1.09-.52-5.08,14.27h-2.1ZM478.19,128.77l.71-1.89h6.75l.71,1.89h-8.16Z"/>
  <path class="cls-2" d="M494.41,117.8h2.1v15.64h-2.1v-15.64ZM496.08,131.56h7.16v1.89h-7.16v-1.89Z"/>
  <polyline class="cls-2" points="24.65 24.15 24.65 24.15 24.65 24.15 24.65 24.15"/>
  <path class="cls-1" d="M60.41,33.5c2.58,0,4.66,2.09,4.66,4.66s-2.09,4.66-4.66,4.66-4.66-2.09-4.66-4.66,2.09-4.66,4.66-4.66"/>
  <path class="cls-1" d="M116.02,65.61c2.58,0,4.66,2.09,4.66,4.66s-2.09,4.66-4.66,4.66-4.66-2.09-4.66-4.66,2.09-4.66,4.66-4.66"/>
  <path class="cls-1" d="M60.41,97.71c2.58,0,4.66,2.09,4.66,4.66s-2.09,4.66-4.66,4.66-4.66-2.09-4.66-4.66,2.09-4.66,4.66-4.66"/>
  <path class="cls-2" d="M34.93,134.21h0l.06.1c.3.51,1.83,2.93,4.59,4.52,2.76,1.59,5.62,1.71,6.21,1.72h8.98c2.39,0,4.32-1.94,4.32-4.32v-23.99c-2.56-.34-4.8-1.64-6.37-3.53l-20.65,11.92c-2.07,1.19-2.78,3.84-1.58,5.91h0s4.43,7.68,4.43,7.68Z"/>
  <path class="cls-2" d="M66.48,140.55h46.85c1.17-.1,3.33-.46,5.44-1.67,2.11-1.22,3.5-2.92,4.17-3.88l7.04-12.19,16.39-28.38c1.19-2.07.49-4.71-1.58-5.91l-20.95-12.1c-1.82,2.31-4.64,3.8-7.81,3.8-2.68,0-5.11-1.06-6.9-2.79l-39.06,22.55c.19.77.29,1.57.29,2.4,0,4.89-3.54,8.96-8.2,9.79v24.05c0,2.39,1.94,4.32,4.32,4.32"/>
  <path class="cls-2" d="M70.35,38.17c0,.83-.1,1.63-.29,2.4l39.06,22.55c1.79-1.72,4.22-2.79,6.9-2.79,3.17,0,5.99,1.48,7.81,3.8l20.95-12.1h0c2.07-1.19,2.78-3.84,1.58-5.91l-16.39-28.38-7.03-12.18c-.67-.96-2.06-2.66-4.17-3.88-2.11-1.22-4.28-1.57-5.45-1.67h-46.84c-2.39,0-4.32,1.94-4.32,4.32v24.06c4.66.82,8.2,4.89,8.2,9.79"/>
  <path class="cls-3" d="M63.16,47.72v45.1c1.58.45,3,1.29,4.15,2.4l39.1-22.57c-.19-.77-.29-1.57-.29-2.4s.1-1.6.28-2.36l-39.09-22.57c-1.15,1.11-2.57,1.94-4.15,2.4"/>
  <path class="cls-2" d="M125.96,70.27c0,1.23-.22,2.4-.63,3.49l20.98,12.11c2.07,1.19,4.71.49,5.91-1.58h0l4.43-7.68.06-.1c.29-.52,1.62-3.05,1.62-6.24s-1.33-5.72-1.62-6.24l-4.49-7.78c-1.19-2.07-3.84-2.78-5.91-1.58l-20.98,12.11c.41,1.08.63,2.26.63,3.49"/>
  <path class="cls-2" d="M32.08,19.92l20.65,11.92c1.56-1.89,3.81-3.2,6.37-3.53V4.32c0-2.39-1.94-4.32-4.32-4.32h-8.98c-.59,0-3.45.12-6.21,1.72-2.76,1.59-4.29,4.01-4.59,4.52l-4.49,7.78c-1.19,2.07-.49,4.71,1.58,5.91"/>
  <path class="cls-2" d="M24.65,116.39h0c1.19,2.07,3.84,2.78,5.91,1.58l20.62-11.91c-.46-1.14-.71-2.39-.71-3.69,0-4.54,3.04-8.36,7.19-9.55v-45.1c-4.15-1.19-7.19-5.02-7.19-9.55,0-1.3.25-2.55.71-3.69l-20.62-11.91c-2.07-1.19-4.71-.49-5.91,1.58h0s-16.37,28.36-16.37,28.36l-6.66,11.53c-.29.53-1.62,3.06-1.62,6.23s1.32,5.71,1.62,6.23l6.65,11.53,16.37,28.36"/>
  <path class="cls-2" d="M189.25,34.87c0-3.57.68-6.91,2.04-10.04,1.36-3.13,3.22-5.86,5.56-8.2,2.34-2.34,5.08-4.2,8.2-5.56,3.13-1.36,6.47-2.04,10.04-2.04h39.55v17.25h-39.55c-1.2,0-2.32.22-3.37.66-1.04.44-1.95,1.05-2.73,1.83-.78.78-1.39,1.69-1.83,2.73-.44,1.04-.66,2.16-.66,3.37s.22,2.33.66,3.4c.44,1.06,1.05,1.98,1.83,2.77.78.78,1.69,1.39,2.73,1.83,1.04.44,2.16.66,3.37.66h17.25c3.56,0,6.92.67,10.07,2.01,3.14,1.34,5.89,3.19,8.23,5.53,2.34,2.34,4.19,5.09,5.53,8.23,1.34,3.15,2.01,6.5,2.01,10.07s-.67,6.91-2.01,10.04c-1.34,3.13-3.19,5.86-5.53,8.2-2.34,2.34-5.09,4.2-8.23,5.56-3.15,1.36-6.5,2.04-10.07,2.04h-38.29v-17.25h38.29c1.2,0,2.32-.22,3.36-.66,1.04-.44,1.95-1.05,2.74-1.83.78-.78,1.39-1.69,1.83-2.73.44-1.04.66-2.16.66-3.37s-.22-2.32-.66-3.37c-.44-1.04-1.05-1.95-1.83-2.73-.78-.78-1.69-1.39-2.74-1.83-1.04-.44-2.16-.66-3.36-.66h-17.25c-3.57,0-6.91-.68-10.04-2.04-3.13-1.36-5.86-3.22-8.2-5.56-2.35-2.34-4.2-5.09-5.56-8.23-1.36-3.15-2.04-6.5-2.04-10.07"/>
  <path class="cls-2" d="M335.01,95.22h-17.25v-17.25h-34.5v17.25h-17.19v-51.69c0-4.77.9-9.25,2.71-13.43,1.8-4.19,4.26-7.84,7.36-10.97,3.1-3.13,6.75-5.59,10.94-7.39,4.19-1.8,8.66-2.71,13.43-2.71s9.25.9,13.43,2.71c4.19,1.8,7.84,4.27,10.97,7.39,3.13,3.13,5.59,6.78,7.39,10.97,1.8,4.19,2.71,8.67,2.71,13.43v51.69ZM317.76,60.78v-17.25c0-2.36-.45-4.6-1.35-6.7-.9-2.1-2.13-3.94-3.7-5.5-1.56-1.56-3.4-2.79-5.5-3.7-2.1-.9-4.34-1.35-6.7-1.35s-4.6.45-6.7,1.35c-2.1.9-3.94,2.13-5.5,3.7-1.56,1.56-2.79,3.4-3.7,5.5-.9,2.1-1.35,4.34-1.35,6.7v17.25h34.5Z"/>
  <path class="cls-2" d="M431.97,52.49c0,4.09-.53,8.02-1.59,11.81-1.06,3.79-2.55,7.33-4.48,10.64-1.92,3.31-4.25,6.32-6.97,9.05-2.73,2.73-5.73,5.06-9.02,7-3.29,1.95-6.83,3.45-10.64,4.51-3.81,1.06-7.75,1.59-11.84,1.59s-8.02-.53-11.81-1.59c-3.79-1.06-7.33-2.56-10.64-4.51-3.31-1.94-6.32-4.28-9.05-7-2.73-2.72-5.06-5.74-7-9.05-1.94-3.3-3.45-6.85-4.51-10.64-1.06-3.79-1.59-7.72-1.59-11.81s.53-8.03,1.59-11.84c1.06-3.81,2.57-7.35,4.51-10.64,1.94-3.29,4.28-6.29,7-9.02,2.72-2.72,5.74-5.05,9.05-6.97,3.31-1.92,6.85-3.42,10.64-4.48,3.79-1.06,7.73-1.59,11.81-1.59s8.03.53,11.84,1.59,7.35,2.55,10.64,4.48,6.29,4.25,9.02,6.97c2.73,2.73,5.05,5.73,6.97,9.02,1.92,3.29,3.41,6.83,4.48,10.64,1.06,3.81,1.59,7.75,1.59,11.84M414.84,52.49c0-3.77-.72-7.32-2.16-10.67-1.44-3.35-3.4-6.25-5.86-8.72-2.46-2.46-5.37-4.42-8.71-5.86-3.35-1.44-6.9-2.16-10.67-2.16s-7.37.72-10.7,2.16c-3.33,1.44-6.23,3.4-8.72,5.86-2.48,2.46-4.45,5.37-5.89,8.72-1.44,3.35-2.16,6.9-2.16,10.67s.72,7.3,2.16,10.61c1.44,3.31,3.41,6.2,5.89,8.68,2.49,2.49,5.39,4.45,8.72,5.89,3.33,1.44,6.89,2.16,10.7,2.16s7.32-.72,10.67-2.16c3.35-1.44,6.25-3.41,8.71-5.89,2.47-2.48,4.42-5.38,5.86-8.68,1.44-3.31,2.16-6.84,2.16-10.61"/>
  <path class="cls-2" d="M435.76,34.87c0-3.57.68-6.91,2.04-10.04,1.36-3.13,3.22-5.86,5.56-8.2,2.34-2.34,5.08-4.2,8.2-5.56,3.13-1.36,6.47-2.04,10.04-2.04h39.55v17.25h-39.55c-1.2,0-2.32.22-3.37.66-1.04.44-1.95,1.05-2.73,1.83-.78.78-1.39,1.69-1.83,2.73-.44,1.04-.66,2.16-.66,3.37s.22,2.33.66,3.4c.44,1.06,1.05,1.98,1.83,2.77.78.78,1.69,1.39,2.73,1.83,1.04.44,2.16.66,3.37.66h17.25c3.56,0,6.92.67,10.07,2.01,3.14,1.34,5.89,3.19,8.23,5.53,2.34,2.34,4.19,5.09,5.53,8.23,1.34,3.15,2.01,6.5,2.01,10.07s-.67,6.91-2.01,10.04c-1.34,3.13-3.19,5.86-5.53,8.2-2.34,2.34-5.09,4.2-8.23,5.56-3.15,1.36-6.5,2.04-10.07,2.04h-38.29v-17.25h38.29c1.2,0,2.32-.22,3.36-.66,1.04-.44,1.95-1.05,2.74-1.83.78-.78,1.39-1.69,1.83-2.73.44-1.04.66-2.16.66-3.37s-.22-2.32-.66-3.37c-.44-1.04-1.05-1.95-1.83-2.73-.78-.78-1.69-1.39-2.74-1.83-1.04-.44-2.16-.66-3.36-.66h-17.25c-3.57,0-6.91-.68-10.04-2.04-3.13-1.36-5.86-3.22-8.2-5.56-2.35-2.34-4.2-5.09-5.56-8.23-1.36-3.15-2.04-6.5-2.04-10.07"/>
</svg>